<svg width="81" height="81" viewBox="0 0 81 81" fill="none" xmlns="http://www.w3.org/2000/svg">
<path d="M78.9703 1.5444C77.9407 0.514797 76.6022 0 75.1608 0C73.1016 0 71.4542 1.0296 70.4246 2.88288L40.6692 64.1441L10.0901 2.88288C8.95752 1.0296 7.4131 0 5.3539 0C3.8095 0 2.57398 0.514797 1.54438 1.5444C0.514781 2.574 0 3.91248 0 5.35392V75.0578C0 76.6022 0.514781 77.8378 1.54438 78.8674C2.57398 79.897 3.8095 80.4118 5.3539 80.4118C6.79534 80.4118 8.13383 79.897 9.16343 78.8674C10.193 77.8378 10.7078 76.6022 10.7078 75.0578V24.8134L35.3153 74.1312C36.3449 76.2934 37.9922 77.323 40.2573 77.323C42.1106 77.323 43.655 76.4993 44.8906 74.646L69.8069 23.8867V75.0578C69.8069 76.6022 70.3217 77.8378 71.3513 78.8674C72.3809 79.897 73.6164 80.4118 75.1608 80.4118C76.6022 80.4118 77.8377 79.897 78.8673 78.8674C79.8969 77.8378 80.5147 76.6022 80.5147 75.0578V5.35392C80.5147 3.91248 79.9999 2.574 78.9703 1.5444V1.5444Z" fill="#3D3C3C"/>
</svg>
