<svg width="472" height="82" viewBox="0 0 472 82" fill="none" xmlns="http://www.w3.org/2000/svg">
<path d="M79.3901 2.02963C78.3605 1.00003 77.022 0.485229 75.5806 0.485229C73.5214 0.485229 71.874 1.51483 70.8444 3.36811L41.0889 64.6293L10.5098 3.36811C9.37729 1.51483 7.83287 0.485229 5.77367 0.485229C4.22927 0.485229 2.99375 1.00003 1.96415 2.02963C0.93455 3.05923 0.419769 4.39771 0.419769 5.83915V75.5431C0.419769 77.0875 0.93455 78.323 1.96415 79.3526C2.99375 80.3822 4.22927 80.897 5.77367 80.897C7.21511 80.897 8.55359 80.3822 9.58319 79.3526C10.6128 78.323 11.1276 77.0875 11.1276 75.5431V25.2986L35.735 74.6164C36.7646 76.7786 38.412 77.8082 40.6771 77.8082C42.5304 77.8082 44.0748 76.9845 45.3103 75.1312L70.2266 24.3719V75.5431C70.2266 77.0875 70.7414 78.323 71.771 79.3526C72.8006 80.3822 74.0362 80.897 75.5806 80.897C77.022 80.897 78.2575 80.3822 79.2871 79.3526C80.3167 78.323 80.9345 77.0875 80.9345 75.5431V5.83915C80.9345 4.39771 80.4197 3.05923 79.3901 2.02963V2.02963Z" fill="#3D3C3C"/>
<path d="M153.199 32.6087C147.639 27.0489 140.946 24.166 133.018 24.166C125.194 24.166 118.398 27.0489 112.838 32.6087C107.278 38.1686 104.499 44.861 104.499 52.7889C104.499 60.7168 107.278 67.4092 112.838 72.9691C118.398 78.5289 125.194 81.3088 133.018 81.3088C140.123 81.3088 146.403 79.0437 151.757 74.4105V76.3667C151.757 77.8082 152.169 78.9407 153.199 79.8674C154.125 80.897 155.258 81.3088 156.699 81.3088C158.038 81.3088 159.17 80.897 160.2 79.8674C161.127 78.9407 161.641 77.8082 161.641 76.3667V52.7889C161.641 44.861 158.861 38.1686 153.199 32.6087V32.6087ZM133.018 71.4247C127.87 71.4247 123.443 69.6743 119.84 65.9678C116.133 62.3642 114.383 57.9369 114.383 52.7889C114.383 47.6409 116.133 43.2136 119.84 39.61C123.443 35.9035 127.87 34.0502 133.018 34.0502C138.166 34.0502 142.594 35.9035 146.197 39.61C149.904 43.2136 151.757 47.6409 151.757 52.7889C151.757 57.9369 149.904 62.3642 146.197 65.9678C142.594 69.6743 138.166 71.4247 133.018 71.4247V71.4247Z" fill="#494848"/>
<path d="M186.89 26.0193C185.86 27.0489 185.448 28.2844 185.448 29.8288V75.646C185.448 77.1904 185.86 78.426 186.89 79.4556C187.919 80.4852 189.155 80.897 190.699 80.897C192.244 80.897 193.479 80.4852 194.509 79.4556C195.435 78.426 195.95 77.1904 195.95 75.646V29.8288C195.95 28.2844 195.435 27.0489 194.509 26.0193C193.479 25.0927 192.244 24.5779 190.699 24.5779C189.155 24.5779 187.919 25.0927 186.89 26.0193ZM195.435 3.88293C194.097 2.54445 192.553 1.82373 190.699 1.82373C188.846 1.82373 187.199 2.54445 185.86 3.88293C184.522 5.22141 183.904 6.76581 183.904 8.61909C183.904 10.4724 184.522 12.1197 185.86 13.4582C187.199 14.7967 188.846 15.4145 190.699 15.4145C192.553 15.4145 194.097 14.7967 195.435 13.4582C196.774 12.1197 197.495 10.4724 197.495 8.61909C197.495 6.76581 196.774 5.22141 195.435 3.88293Z" fill="#545454"/>
<path d="M222.121 1.92667C221.091 2.95627 220.679 4.19179 220.679 5.63323V61.8494C220.679 65.556 221.297 68.8507 222.635 71.7335C223.871 74.6164 225.724 76.8816 228.092 78.5289C230.46 80.1763 233.137 80.897 236.123 80.897H236.329C238.388 80.897 240.036 80.4852 241.374 79.4556C242.61 78.5289 243.33 77.2934 243.33 75.749C243.33 74.3076 242.815 73.072 241.992 72.0424C241.168 71.1158 240.036 70.601 238.697 70.601H236.123C234.579 70.601 233.343 69.7773 232.416 68.1299C231.387 66.4826 230.975 64.4234 230.975 61.8494V5.63323C230.975 4.19179 230.46 2.95627 229.534 1.92667C228.504 1.00003 227.268 0.485229 225.827 0.485229C224.283 0.485229 223.047 1.00003 222.121 1.92667V1.92667Z" fill="#606060"/>
<path d="M309.557 72.9691C303.997 78.6319 297.305 81.4118 289.377 81.4118C281.449 81.4118 274.756 78.6319 269.196 72.9691C263.637 67.4092 260.857 60.7168 260.857 52.7889V5.42731C260.857 4.08883 261.269 2.95627 262.298 1.92667C263.225 1.00003 264.357 0.485229 265.799 0.485229C267.137 0.485229 268.27 1.00003 269.196 1.92667C270.226 2.95627 270.741 4.08883 270.741 5.42731V31.1673C275.992 26.5341 282.272 24.269 289.377 24.269C297.305 24.269 303.997 27.0489 309.557 32.6087C315.117 38.1686 318 44.9639 318 52.7889C318 60.7168 315.117 67.4092 309.557 72.9691V72.9691ZM289.377 34.1531C284.229 34.1531 279.801 36.0064 276.198 39.61C272.491 43.2136 270.741 47.6409 270.741 52.7889C270.741 57.9369 272.491 62.3642 276.198 66.0708C279.801 69.6744 284.229 71.5276 289.377 71.5276C294.525 71.5276 298.952 69.6744 302.556 66.0708C306.262 62.3642 308.115 57.9369 308.115 52.7889C308.115 47.6409 306.262 43.2136 302.556 39.61C298.952 36.0064 294.525 34.1531 289.377 34.1531V34.1531Z" fill="#6C6B6B"/>
<path d="M386.835 24.3719C385.394 24.3719 384.158 24.8867 383.129 25.9163C382.099 26.9459 381.687 28.0785 381.687 29.5199V55.157C381.687 59.5843 380.04 63.3938 376.951 66.4826C373.759 69.6744 370.053 71.2187 365.626 71.2187C361.198 71.2187 357.492 69.6744 354.3 66.4826C351.211 63.3938 349.667 59.5843 349.667 55.157V29.5199C349.667 28.0785 349.152 26.9459 348.122 25.9163C347.093 24.8867 345.96 24.3719 344.519 24.3719C343.077 24.3719 341.842 24.8867 340.812 25.9163C339.783 26.9459 339.371 28.0785 339.371 29.5199V55.157C339.371 62.4671 341.842 68.6448 346.99 73.7928C352.138 78.9408 358.315 81.5147 365.626 81.5147C372.833 81.5147 379.113 78.9408 384.261 73.7928C389.409 68.6448 391.983 62.4671 391.983 55.157V29.5199C391.983 28.0785 391.469 26.9459 390.439 25.9163C389.409 24.8867 388.277 24.3719 386.835 24.3719Z" fill="#777777"/>
<path d="M422.777 72.9691C428.337 78.6319 435.029 81.4118 442.957 81.4118C450.885 81.4118 457.578 78.6319 463.138 72.9691C468.697 67.4092 471.58 60.7168 471.58 52.7889V5.42731C471.58 4.08883 471.066 2.95627 470.036 1.92667C469.109 1.00003 467.977 0.485229 466.638 0.485229C465.197 0.485229 464.064 1.00003 463.138 1.92667C462.108 2.95627 461.696 4.08883 461.696 5.42731V31.1673C456.342 26.5341 450.062 24.269 442.957 24.269C435.029 24.269 428.337 27.0489 422.777 32.6087C417.217 38.1686 414.438 44.9639 414.438 52.7889C414.438 60.7168 417.217 67.4092 422.777 72.9691V72.9691ZM442.957 34.1531C448.105 34.1531 452.533 36.0064 456.136 39.61C459.843 43.2136 461.696 47.6409 461.696 52.7889C461.696 57.9369 459.843 62.3642 456.136 66.0708C452.533 69.6744 448.105 71.5276 442.957 71.5276C437.809 71.5276 433.382 69.6744 429.778 66.0708C426.072 62.3642 424.322 57.9369 424.322 52.7889C424.322 47.6409 426.072 43.2136 429.778 39.61C433.382 36.0064 437.809 34.1531 442.957 34.1531V34.1531Z" fill="#838383"/>
</svg>
